<svg width="132" height="16" viewBox="0 0 132 16" fill="none" xmlns="http://www.w3.org/2000/svg">
<path d="M22.4566 11.6794C21.0604 14.4217 17.7568 16 11.7592 16C6.07626 16 2.71367 14.2836 1.17986 11.9951C0.452278 10.8903 0 9.52898 0 8.02959C0 6.64858 0.334292 5.32676 1.02254 4.34032C2.71367 1.87423 5.89928 0 11.6609 0C17.7372 0 20.7261 2.11097 22.3976 4.53761C22.8499 5.20839 23.0072 6.21455 23.0465 6.60912H18.7597C18.681 6.29347 18.4647 5.85943 18.1501 5.50432C17.2456 4.45869 15.0628 3.45253 11.6412 3.45253C8.141 3.45253 5.56498 4.51788 4.58177 6.27374C4.30647 6.76695 4.18849 7.33909 4.18849 8.02959C4.18849 8.73983 4.3458 9.35142 4.66043 9.84464C5.85995 11.7583 8.82925 12.5869 11.6609 12.5869C14.8858 12.5869 16.9506 12.2121 18.3861 10.5154C18.6417 10.2195 18.74 9.78545 18.7794 9.48952H23.0662C22.9875 10.0419 22.7712 11.0481 22.4566 11.6794Z" fill="#D6D6D6"/>
<path d="M44.2661 7.41835C43.7352 8.18777 42.6733 9.07557 41.2378 9.27285L46.8422 15.7636H42.2604L37.0494 9.72662H29.164V15.7636H25.1328V0.355469H38.4652C41.1592 0.355469 43.0076 1.04597 43.9712 2.05214C44.6004 2.72292 44.9544 3.57125 44.9544 4.7747C44.9544 5.82033 44.7381 6.74758 44.2661 7.41835ZM40.6872 4.2223C40.2743 3.78827 39.7434 3.57125 38.4455 3.57125H29.164V6.53056H38.6815C39.94 6.53056 40.4513 6.33327 40.7266 5.95843C40.9625 5.62304 41.0215 5.32711 41.0215 5.07064C41.0215 4.75498 40.9429 4.47877 40.6872 4.2223Z" fill="#D6D6D6"/>
<path d="M48.5312 15.7636V0.355469H66.8387V3.6699H52.5428V6.41219H66.5044V9.62797H52.5428V12.4492H67.0157V15.7636H48.5312Z" fill="#D6D6D6"/>
<path d="M72.3224 15.7636H67.9766L78.261 0.355469H82.8624L92.8125 15.7636H88.2897L86.3036 12.607H74.3674L72.3224 15.7636ZM81.2893 4.65633L80.424 3.15695L79.5195 4.65633L76.4322 9.41096H84.2782C84.2979 9.41096 81.2893 4.65633 81.2893 4.65633Z" fill="#D6D6D6"/>
<path d="M102.077 3.6699V15.7636H97.9283V3.6699H89.4727V0.355469H110.513V3.6699H102.077Z" fill="#D6D6D6"/>
<path d="M112.52 15.7636V0.355469H130.827V3.6699H116.531V6.41219H130.493V9.62797H116.531V12.4492H131.004V15.7636H112.52Z" fill="#D6D6D6"/>
</svg>
